# Blender 4.5.1 LTS
# www.blender.org
mtllib Grass.mtl
o Cube
v -0.100000 0.100000 -0.083324
v -0.100000 -0.100000 -0.100000
v -0.100000 0.100000 0.083324
v -0.100000 -0.100000 0.100000
v -0.100000 0.100000 -0.083324
v -0.100000 0.100000 0.083324
v -0.100000 0.246698 -0.053762
v -0.100000 0.246698 0.053762
v -0.100000 0.345853 -0.025953
v -0.100000 0.345853 0.025953
v -0.100000 0.390315 -0.009034
v -0.100000 0.390315 0.009034
v -0.100000 0.410902 0.000000
vn -1.0000 -0.0000 -0.0000
vt 0.375000 0.000000
vt 0.625000 0.000000
vt 0.625000 0.250000
vt 0.375000 0.250000
vt 0.000000 0.000000
s 0
usemtl Material
f 4/1/1 3/2/1 1/3/1 2/4/1
f 7/5/1 5/5/1 6/5/1 8/5/1
f 7/5/1 8/5/1 10/5/1 9/5/1
f 9/5/1 10/5/1 12/5/1 11/5/1
f 11/5/1 12/5/1 13/5/1
l 1 5
l 3 6
